<svg width="378" height="264" viewBox="0 0 378 264" fill="none" xmlns="http://www.w3.org/2000/svg">
<path d="M271.287 140.912C271.287 203.097 220.876 253.509 158.69 253.509C96.5042 253.509 46.0928 203.097 46.0928 140.912C46.0928 78.726 96.5042 28.3146 158.69 28.3146C220.876 28.3146 271.287 78.726 271.287 140.912Z" fill="#A5AADA"/>
<path fill-rule="evenodd" clip-rule="evenodd" d="M258.994 6.55426V30.8161C258.994 31.3951 258.98 31.9706 258.953 32.542H258.994V56.8039C258.994 74.4643 246.38 88.7809 230.82 88.7809H127.572V64.519C127.572 54.8271 131.371 46.1425 137.372 40.2783V38.5313C137.372 20.8709 149.986 6.55426 165.546 6.55426H258.994Z" fill="#23224C"/>
<path fill-rule="evenodd" clip-rule="evenodd" d="M95.1778 0.800435C90.0651 -0.358403 84.7872 -0.258386 79.7081 1.09681C74.5485 2.47356 69.7009 5.11741 65.5246 8.86529C62.4491 11.6253 58.1794 16.1646 55.3224 22.7705C54.0781 25.6476 52.9672 29.0411 52.3186 32.7425C52.0953 34.0169 52.0153 35.0803 51.9943 35.359L51.9928 35.3785C51.9588 35.8294 51.9384 36.2318 51.9257 36.5172C51.8998 37.0982 51.884 37.7061 51.873 38.2485C51.8505 39.3594 51.8381 40.7345 51.8315 42.2016C51.8182 45.1634 51.8269 48.905 51.8438 52.5331C51.8479 53.4141 51.8525 54.2923 51.8575 55.1556C51.8154 55.1876 51.7746 55.2188 51.7351 55.249C51.6918 55.2821 51.65 55.314 51.6097 55.3447C51.3687 55.5281 51.1821 55.6695 51.0572 55.7642C50.9948 55.8116 50.9477 55.8472 50.9169 55.8705C50.9015 55.8822 50.89 55.8907 50.8829 55.8961C50.8808 55.8977 50.8791 55.899 50.8778 55.9001C50.8768 55.9008 50.8754 55.9019 50.8748 55.9023C50.8752 55.9021 50.8744 55.9027 50.8748 55.9023L50.2294 56.39L49.6212 56.9334C49.6083 56.945 47.6628 58.6829 45.0044 61.0246C42.3086 63.3993 38.9667 66.318 36.1789 68.6787C30.8829 73.1634 25.9343 77.6286 20.1655 84.7489C13.8728 92.5156 7.85286 100.614 3.90588 112.313C0.0545383 123.729 -0.987971 136.001 0.953513 148.03L1.04648 148.592C3.04186 160.383 7.7967 171.265 14.6408 180.453L14.9674 180.888C20.3001 187.937 26.7564 193.826 33.9402 198.409C31.7107 201.6 29.8949 205.181 28.5899 209.061C26.3894 215.603 25.7487 222.687 26.7615 229.624C27.7736 236.556 30.3828 242.982 34.2289 248.343L34.4097 248.593C38.2223 253.823 43.0893 257.845 48.5057 260.425C54.0045 263.044 59.9711 264.134 65.8847 263.648L66.1619 263.624C71.9795 263.097 77.6602 261.05 82.7017 257.573L82.9415 257.407C87.9645 253.883 92.2295 249.002 95.2518 243.084L95.4397 242.712C97.3621 238.854 98.7105 234.659 99.4164 230.288L99.4492 230.079C99.7607 228.016 99.8058 225.706 99.8121 225.384C99.8125 225.366 99.8127 225.354 99.8128 225.349C99.844 224.268 99.868 222.931 99.8872 221.481C99.926 218.555 99.9506 214.786 99.9663 210.872C99.9672 210.643 99.9679 210.414 99.9686 210.184C99.9691 210.019 99.9697 209.854 99.9702 209.688C110.475 206.772 120.287 201.372 128.429 194.173C140.834 183.208 151.165 166.265 151.326 145.464L151.328 144.972C151.328 112.037 129.505 87.7999 103.154 80.5215C104.909 78.9822 106.505 77.5249 107.785 76.259L108.231 75.8143C110.467 73.5633 112.812 70.9031 114.924 68.0326C116.968 65.254 119.749 61.0051 121.48 55.8482C123.109 50.9942 124.314 45.8427 124.123 39.2645C123.949 33.2667 122.595 27.4024 120.175 22.0874L120.059 21.8346L119.941 21.5831C117.495 16.3938 114.09 11.8889 109.981 8.35401L109.782 8.18372C105.585 4.62432 100.764 2.15287 95.6642 0.914677L95.4212 0.856489L95.1778 0.800435Z" fill="#23224C"/>
<path fill-rule="evenodd" clip-rule="evenodd" d="M84.7098 27.4092C81.9612 26.8408 79.1178 26.879 76.3862 27.5211C74.1946 28.0364 71.901 29.9545 69.9509 31.5855C69.4703 31.9873 69.0107 32.3718 68.5785 32.7135C67.4078 33.6392 67.2545 33.4769 67.1778 33.5073C67.1112 33.5338 67.1021 33.7052 66.5365 34.8573C65.834 36.2886 65.2678 37.8648 64.9596 39.4144C64.6877 40.782 66.1298 65.1213 66.4672 70.8146C66.5112 71.5568 66.5364 71.9821 66.5365 71.9983C60.8719 75.9259 51.5985 80.2893 50.5838 80.7667C50.5252 80.7943 50.4941 80.8089 50.4929 80.8097C50.4771 80.8222 41.4499 87.9284 34.7819 92.9033C29.2822 97.0067 24.8812 100.539 19.6513 106.226C12.9127 113.554 8.47996 119.12 5.55781 126.751C2.61152 134.446 1.83952 142.619 3.3038 150.612C4.76811 158.606 8.42781 166.197 13.9885 172.774C19.5491 179.351 26.8554 184.73 35.3192 188.479L35.4272 188.527C43.3865 192.053 52.1208 195.922 61.0746 196.232H64.1532L63.7017 229.727C63.7017 230.496 62.7873 230.903 61.8503 231.319C61.0937 231.656 60.3224 231.999 60.006 232.544C59.298 233.766 58.2751 234.802 57.0309 235.558C55.7867 236.314 54.3606 236.766 52.8825 236.873C51.4043 236.98 49.921 236.739 48.5678 236.171C47.2146 235.603 45.9351 229.931 45.0354 228.826C44.8986 228.658 44.7647 228.504 44.6361 228.355C44.4061 228.091 44.1929 227.964 44.0093 227.856C43.6204 227.626 43.3645 227.474 43.3645 226.249C43.3645 225.96 43.3655 225.665 43.3665 225.365C43.381 221.079 43.3989 215.8 40.5491 212.809L39.0244 215.899C36.5644 217.96 38.4802 213.357 37.3685 216.269C36.2567 219.181 35.9399 222.309 36.4464 225.365C36.9529 228.422 37.936 232.281 39.5249 235.558C41.1138 238.835 44.5024 242.974 48.0068 244.238C51.5111 245.502 55.3523 246.039 59.1802 245.801C63.0081 245.563 66.7012 244.556 69.9231 242.874C73.1451 241.192 75.7935 238.887 77.6271 236.169C78.8345 234.379 79.6633 232.448 80.0886 230.455C80.444 228.789 81.1042 205.056 81.0926 196.518C81.8561 196.55 82.6234 196.54 83.3943 196.529C118.772 190.671 133.073 169.065 133.073 144.393C133.072 119.722 107.209 106.855 78.7959 106.855C76.4823 106.855 74.2044 106.988 71.9716 107.245V78.5658C77.1965 74.8481 86.1809 66.9206 90.9502 62.7123C91.8528 61.916 92.6044 61.2528 93.1509 60.7765C97.0693 57.3624 100.425 52.3075 101.811 48.6682C102.997 45.5546 103.47 43.4089 103.38 40.6579C103.289 37.9069 102.346 34.8808 101.06 32.434C100.363 31.1092 98.5012 31.2315 96.5854 31.3573C94.9628 31.4639 93.3017 31.573 92.2774 30.8076C90.0436 29.1385 87.4585 27.9777 84.7098 27.4092ZM58.6423 87.862C58.6325 87.8705 58.6274 87.8749 58.6274 87.8749C58.624 87.8775 49.5913 94.9921 42.9166 99.9685C37.6565 103.89 33.0742 107.36 28.0575 113.003C22.6843 119.047 19.2093 123.648 16.8354 129.848C14.4615 136.048 13.8396 142.633 15.0194 149.073C16.1992 155.514 19.1478 161.629 23.6281 166.929C28.1084 172.228 33.8337 174.781 40.6531 177.802C47.0728 180.646 57.1244 184.031 64.3518 184.288V122.049C63.8905 122.304 62.9463 122.692 61.9288 123.109C60.5087 123.691 58.9457 124.333 58.3535 124.754C54.2137 127.704 50.9901 131.479 48.9684 135.746L37.8725 131.917C40.6321 126.093 44.3089 121.217 50.2501 116.289C54.2256 112.992 60.5456 109.792 64.4511 108.345V83.1207C62.7124 84.3213 58.9098 87.6292 58.6423 87.862ZM88.6262 119.389C83.4523 118.09 77.9827 117.9 72.7023 118.836C72.458 118.879 72.2144 118.925 71.9716 118.973V183.717C76.517 183.052 80.9444 181.846 85.119 180.125C92.0387 177.273 98.071 173.084 102.73 167.897C107.094 163.039 110.139 157.432 111.657 151.476L111.589 151.465C112.596 146.943 112.282 142.28 110.673 137.887C109.064 133.495 106.21 129.509 102.365 126.282C98.519 123.055 93.8001 120.688 88.6262 119.389ZM82.2197 38.9893C80.9844 38.7338 79.7066 38.7511 78.479 39.0397C77.2513 39.3283 76.1044 39.881 75.1219 40.6579C74.1394 41.4348 73.3457 42.4164 72.7985 43.5312C72.3132 44.5199 72.0331 45.5915 71.9716 46.6842V65.87C73.8355 64.4971 77.0188 60.7855 79.5687 57.8124C81.1182 56.0058 82.4338 54.4719 83.0772 53.9013C89.3952 48.2982 91.658 44.9517 92.0822 44.2785L92.0331 44.2578C92.2317 43.8116 91.8051 44.3131 91.2121 45.0103C90.2981 46.0848 88.9888 47.6241 88.9641 46.8743C88.9234 45.6379 88.6022 44.4258 88.0239 43.3262C87.4457 42.2266 86.6249 41.2668 85.621 40.5167C84.6171 39.7665 83.455 39.2447 82.2197 38.9893Z" fill="#A5AADA"/>
<path d="M241.218 29.1791V31.3948C241.218 36.8794 236.772 41.3255 231.287 41.3255H147.273V39.1099C147.273 33.6253 151.719 29.1791 157.204 29.1791H241.218Z" fill="#A5AADA"/>
<path d="M241.218 55.6942V57.9098C241.218 63.3944 236.772 67.8406 231.288 67.8406H136.151V65.6249C136.151 60.1403 140.597 55.6942 146.082 55.6942H241.218Z" fill="#A5AADA"/>
<path fill-rule="evenodd" clip-rule="evenodd" d="M78.8285 18.3874C81.5601 17.7452 84.4035 17.7071 87.1521 18.2755C89.9007 18.8439 92.4859 20.0048 94.7196 21.6739C96.9534 23.343 98.7801 25.4784 100.067 27.9252C101.353 30.372 102.068 33.0688 102.158 35.8198C102.249 38.5707 101.776 40.7165 100.59 43.8301C99.204 47.4694 95.0855 52.0524 91.1671 55.4665C87.7322 58.4593 80.9659 63.4193 74.7522 67.8406V96.5197C76.985 96.2628 79.2629 96.13 81.5765 96.13C109.99 96.1301 133.023 116.13 133.023 140.801C133.023 165.473 105.147 185.915 76.7336 185.915C77.0659 185.909 76.3997 185.915 76.7336 185.915C76.0712 185.926 75.4119 185.936 74.7559 185.904C74.7659 194.442 74.7717 220.477 74.4663 222.143C74.1009 224.136 73.3888 226.068 72.3514 227.857C70.7759 230.575 68.5003 232.88 65.7319 234.562C62.9636 236.245 59.7904 237.251 56.5014 237.489C53.2124 237.727 49.9119 237.19 46.9009 235.926C43.89 234.662 41.2638 232.712 39.262 230.254C37.2603 227.795 35.9464 224.906 35.4399 221.849C34.9333 218.792 35.2502 215.665 36.3619 212.753C37.4737 209.84 39.345 207.235 41.805 205.174L43.4291 206.879C46.2788 209.87 46.2609 215.149 46.2464 219.436C46.2454 219.735 46.2444 220.03 46.2444 220.319C46.2444 222.123 46.7989 222.762 47.516 223.588C47.6446 223.736 47.7785 223.891 47.9154 224.059C48.815 225.164 49.9952 226.04 51.3484 226.608C52.7016 227.176 54.185 227.417 55.6631 227.31C57.1412 227.203 58.5673 226.751 59.8115 225.995C61.0557 225.239 62.0786 224.203 62.7867 222.982C63.4947 221.76 63.8657 220.392 63.8657 219.002L64.3171 185.507H63.8552C54.9015 185.197 46.1671 181.328 38.2078 177.802L38.0998 177.754C29.6361 174.005 22.3297 168.625 16.7691 162.048C11.2084 155.471 7.54872 147.881 6.08441 139.887C4.62013 131.894 5.39213 123.721 8.33842 116.026C11.2606 108.395 15.6933 102.829 22.4319 95.501C27.6618 89.8137 32.0628 86.2815 37.5626 82.1781C44.2305 77.2032 53.2577 70.097 53.2735 70.0845C53.2963 70.0693 58.328 66.7198 64.3197 62.5655C64.3182 62.4251 64.0123 34.4175 64.3197 32.8716C64.6279 31.322 65.1941 29.7458 65.8966 28.3145C67.1142 25.834 69.173 23.7168 71.3591 21.9883C73.5452 20.2597 76.0969 19.0296 78.8285 18.3874ZM61.408 77.1497C61.4103 77.1481 62.5176 76.3922 64.3197 75.1478V98.8113C60.4142 100.259 57.0062 102.267 53.0307 105.564C47.0895 110.492 43.4127 115.368 40.6531 121.192C37.8935 127.016 36.8597 133.33 37.643 139.576C38.4264 145.823 41.0026 151.808 45.1439 157.001C50.357 153.974 51.4076 146.943 50.0126 141.079C49.8094 140.224 49.6527 139.36 49.5435 138.49C48.9696 133.913 49.7273 129.287 51.749 125.021C53.7707 120.754 56.9943 116.979 61.1341 114.029C62.1506 113.305 63.2147 112.636 64.3197 112.025V173.563C57.0923 173.306 50.0148 171.702 43.5951 168.858C36.7757 165.837 30.889 161.502 26.4087 156.203C21.9284 150.904 18.9798 144.788 17.8 138.348C16.6202 131.908 17.2422 125.322 19.616 119.123C21.9899 112.923 25.4649 108.322 30.8382 102.278C35.8548 96.6347 40.4371 93.1651 45.6972 89.2433C52.3719 84.2669 61.4046 77.1523 61.408 77.1497ZM75.4829 108.111C80.7633 107.175 86.2329 107.365 91.4068 108.664C96.5807 109.962 101.3 112.33 105.145 115.557C108.991 118.783 111.844 122.77 113.453 127.162C115.062 131.555 115.377 136.218 114.37 140.739L114.438 140.751C112.919 146.707 109.875 152.314 105.511 157.172C100.852 162.359 94.8193 166.548 87.8996 169.4C83.725 171.121 79.2976 172.327 74.7522 172.992V108.248C74.995 108.2 75.2386 108.154 75.4829 108.111ZM81.2596 28.3145C82.4872 28.0259 83.765 28.0086 85.0003 28.264C86.2356 28.5195 87.3977 29.0413 88.4016 29.7915C89.4055 30.5416 90.2263 31.5014 90.8046 32.601C91.3828 33.7006 91.704 34.9127 91.7447 36.1491C91.7854 37.3854 91.5447 38.6151 91.04 39.749L91.0891 39.7697C90.6649 40.4429 88.4021 43.7894 82.0841 49.3925C80.3819 50.9021 77.7488 52.9376 74.7522 55.1448V35.959C74.8137 34.8663 75.0938 33.7947 75.5791 32.806C76.1263 31.6912 76.92 30.7096 77.9025 29.9327C78.885 29.1558 80.0319 28.6031 81.2596 28.3145Z" fill="url(#paint0_linear_403_987)"/>
<path d="M241.218 25.4363V27.652C241.218 33.1366 236.772 37.5827 231.287 37.5827H147.273V35.3671C147.273 29.8825 151.719 25.4363 157.204 25.4363H241.218Z" fill="url(#paint1_linear_403_987)"/>
<path d="M241.218 51.424V53.6396C241.218 59.1242 236.772 63.5704 231.288 63.5704H136.151V61.3547C136.151 55.8701 140.597 51.424 146.082 51.424H241.218Z" fill="url(#paint2_linear_403_987)"/>
<path d="M299.949 237.929C300.143 238.221 300.168 238.514 300.022 238.806C299.876 239.098 299.632 239.269 299.291 239.317H285.626C284.944 239.317 284.36 239.074 283.872 238.587C283.385 238.051 283.215 237.418 283.361 236.687C283.507 235.566 283.629 234.495 283.726 233.472C283.872 232.4 283.994 231.158 284.092 229.745C284.189 228.283 284.189 226.968 284.092 225.799C284.043 224.63 283.921 223.534 283.726 222.51C283.531 221.439 283.166 220.635 282.63 220.099C282.143 219.514 281.534 219.247 280.803 219.295C279.537 219.344 278.66 220.099 278.173 221.561C277.832 222.437 277.71 223.363 277.807 224.337C278.148 228.917 278.733 232.863 279.561 236.175C279.756 236.955 279.634 237.685 279.196 238.368C278.806 239.001 278.246 239.317 277.515 239.317H265.019C264.337 239.317 263.777 239.001 263.339 238.368C262.9 237.685 262.778 236.955 262.973 236.175C263.509 234.08 263.948 231.693 264.289 229.014C264.63 226.335 264.824 224.142 264.873 222.437C264.971 220.684 265.068 218.248 265.165 215.13C265.214 214.497 265.239 214.01 265.239 213.669C265.239 213.376 265.214 212.938 265.165 212.353C265.068 209.284 264.971 206.897 264.873 205.192C264.824 203.487 264.63 201.343 264.289 198.761C263.948 196.131 263.509 193.768 262.973 191.673C262.778 190.894 262.9 190.187 263.339 189.554C263.777 188.872 264.337 188.531 265.019 188.531H277.515C277.953 188.531 278.343 188.677 278.684 188.97C279.074 189.262 279.342 189.652 279.488 190.139C279.683 190.626 279.707 191.137 279.561 191.673C278.489 195.863 277.807 201.319 277.515 208.042C280.681 203.073 284.895 200.467 290.157 200.223C292.203 200.126 293.883 200.588 295.199 201.611C296.514 202.586 297.196 203.998 297.245 205.85C297.342 207.652 296.855 209.187 295.783 210.453C294.712 211.72 292.812 212.402 290.084 212.499C287.063 212.646 284.652 212.962 282.849 213.449C283.434 213.352 283.97 213.303 284.457 213.303C284.895 213.254 285.431 213.279 286.065 213.376C286.698 213.425 287.502 213.571 288.476 213.815C289.499 214.01 290.473 214.375 291.399 214.911C292.325 215.398 293.226 216.031 294.103 216.811C294.98 217.541 295.71 218.564 296.295 219.88C296.88 221.195 297.196 222.681 297.245 224.337C297.586 231.401 298.487 235.932 299.949 237.929ZM277.515 213.595C278.976 212.621 281.68 211.622 285.626 210.599C287.916 209.966 288.841 208.894 288.403 207.384C288.208 206.702 287.794 206.239 287.161 205.996C286.527 205.752 285.845 205.703 285.115 205.85C281.412 206.629 278.879 209.211 277.515 213.595Z" fill="#4C4B83"/>
<path d="M261.104 205.338C261.494 206.02 261.469 206.702 261.031 207.384L256.5 214.911C256.062 215.593 255.428 215.934 254.6 215.934C253.821 215.934 253.236 215.593 252.847 214.911C252.798 214.862 252.603 214.545 252.262 213.961C251.921 213.376 251.677 212.987 251.531 212.792C251.385 212.548 251.117 212.183 250.727 211.696C250.338 211.208 249.972 210.867 249.631 210.673C249.339 210.429 248.949 210.21 248.462 210.015C248.024 209.82 247.561 209.723 247.074 209.723C245.71 209.723 244.735 210.21 244.151 211.184C243.566 212.158 243.176 213.522 242.982 215.276C242.933 215.52 242.908 215.861 242.908 216.299C242.86 216.689 242.787 217.883 242.689 219.88C242.738 220.123 242.762 220.489 242.762 220.976C242.86 223.363 242.957 225.214 243.055 226.53C243.152 227.845 243.347 229.526 243.639 231.572C243.98 233.569 244.419 235.347 244.955 236.906C245.149 237.491 245.028 238.051 244.589 238.587C244.199 239.074 243.639 239.318 242.908 239.318H230.413C229.731 239.318 229.171 239.074 228.732 238.587C228.294 238.051 228.172 237.491 228.367 236.906C228.951 235.201 229.414 233.204 229.755 230.914C230.096 228.624 230.291 226.944 230.34 225.872C230.389 224.8 230.486 222.803 230.632 219.88C230.486 217.054 230.389 215.081 230.34 213.961C230.291 212.84 230.096 211.208 229.755 209.065C229.414 206.873 228.951 204.924 228.367 203.219C228.172 202.634 228.294 202.099 228.732 201.611C229.171 201.124 229.731 200.881 230.413 200.881H242.908C243.639 200.881 244.199 201.124 244.589 201.611C245.028 202.099 245.149 202.634 244.955 203.219C244.857 203.511 244.76 203.828 244.662 204.169C246.513 201.538 249.339 200.223 253.139 200.223C256.646 200.223 259.301 201.928 261.104 205.338Z" fill="#4C4B83"/>
<path d="M223.097 210.161C224.754 213.133 225.582 216.445 225.582 220.099C225.582 223.704 224.754 227.017 223.097 230.037C221.392 233.058 219.151 235.445 216.375 237.198C213.598 239.001 210.504 239.902 207.094 239.902C203.684 239.902 200.566 239.001 197.741 237.198C194.964 235.396 192.747 233.009 191.091 230.037C189.435 227.065 188.606 223.753 188.606 220.099C188.606 216.445 189.435 213.133 191.091 210.161C192.747 207.141 194.964 204.729 197.741 202.927C200.566 201.124 203.684 200.223 207.094 200.223C210.504 200.223 213.598 201.124 216.375 202.927H216.448C219.224 204.729 221.441 207.141 223.097 210.161ZM213.013 228.795C213.159 225.239 212.599 221.293 211.332 216.957C210.358 213.693 209.165 210.965 207.752 208.773C206.485 206.775 205.243 205.582 204.025 205.192C203.83 205.095 203.635 205.046 203.44 205.046C203.099 205.095 202.758 205.265 202.417 205.557C201.346 206.727 200.81 208.894 200.81 212.061C200.712 215.422 201.273 219.125 202.49 223.168C203.367 226.042 204.39 228.478 205.56 230.476C206.68 232.424 207.776 233.764 208.848 234.495C209.725 235.079 210.456 235.225 211.04 234.933C212.258 234.007 212.916 231.961 213.013 228.795Z" fill="#4C4B83"/>
<path d="M187.544 188.166C188.323 188.166 188.957 188.458 189.444 189.043C189.931 189.627 190.102 190.309 189.955 191.089L188.056 200.588C188.056 201.222 187.739 201.66 187.106 201.904C186.472 202.147 185.936 202.025 185.498 201.538C185.206 201.246 184.67 200.686 183.89 199.858C183.111 198.981 182.502 198.323 182.063 197.885C181.674 197.446 181.065 196.886 180.237 196.204C179.457 195.473 178.726 194.937 178.044 194.596C177.411 194.207 176.607 193.89 175.633 193.646C174.707 193.354 173.757 193.208 172.783 193.208H172.71C172.613 193.598 172.515 193.963 172.418 194.304C172.418 194.353 172.393 194.499 172.345 194.742C172.247 195.132 172.15 195.473 172.052 195.765C172.052 195.814 172.028 195.985 171.979 196.277C171.882 196.667 171.809 197.008 171.76 197.3C171.711 197.495 171.663 197.665 171.614 197.812C171.565 198.104 171.516 198.469 171.468 198.908C171.419 199.151 171.37 199.297 171.322 199.346C171.273 199.736 171.224 200.126 171.175 200.515C171.175 200.515 171.151 200.564 171.102 200.661C171.102 200.759 171.102 200.856 171.102 200.954C171.005 201.392 170.932 201.879 170.883 202.415C170.883 202.415 170.883 202.44 170.883 202.488C170.786 202.975 170.713 203.487 170.664 204.023C170.664 204.072 170.64 204.145 170.591 204.242C170.591 204.291 170.591 204.339 170.591 204.388C170.542 204.778 170.493 205.168 170.445 205.557C170.445 205.606 170.445 205.777 170.445 206.069C170.396 206.41 170.347 206.751 170.299 207.092C170.299 207.141 170.299 207.238 170.299 207.384C170.299 207.53 170.274 207.628 170.226 207.676C170.226 208.017 170.201 208.334 170.152 208.626C170.152 208.821 170.152 209.016 170.152 209.211C170.104 209.503 170.079 209.82 170.079 210.161C170.079 210.161 170.055 210.234 170.006 210.38C170.006 210.526 170.006 210.648 170.006 210.746C170.006 210.843 170.006 210.965 170.006 211.111C170.006 211.208 170.006 211.281 170.006 211.33H171.175C175.219 210.892 178.873 209.528 182.137 207.238C182.672 206.897 183.184 206.873 183.671 207.165C184.207 207.409 184.475 207.847 184.475 208.48V219.003C184.475 219.588 184.207 220.026 183.671 220.318C183.184 220.611 182.672 220.586 182.137 220.245C178.873 217.956 175.219 216.567 171.175 216.08H170.006C170.396 223.728 171.468 230.476 173.222 236.321C173.465 237.101 173.343 237.832 172.856 238.514C172.369 239.147 171.711 239.464 170.883 239.464H168.545H168.472H158.826H156.488C155.659 239.464 155.002 239.147 154.515 238.514C154.027 237.832 153.881 237.101 154.076 236.321C156.025 229.842 157.17 222.34 157.511 213.815V213.742C157.462 213.693 157.438 213.644 157.438 213.595C157.438 213.498 157.438 213.425 157.438 213.376C157.438 212.987 157.438 212.621 157.438 212.28C157.438 212.183 157.413 212.085 157.365 211.988C157.365 211.842 157.365 211.744 157.365 211.696C157.365 211.355 157.34 211.038 157.291 210.746C157.291 210.697 157.291 210.502 157.291 210.161C157.291 209.869 157.267 209.552 157.218 209.211C157.218 209.114 157.194 208.919 157.145 208.626C157.145 208.383 157.121 208.066 157.072 207.676C157.072 207.579 157.048 207.384 156.999 207.092C156.999 206.8 156.975 206.459 156.926 206.069C156.926 206.02 156.926 205.923 156.926 205.777L156.853 205.557C156.853 205.168 156.804 204.754 156.707 204.315C156.707 204.315 156.707 204.291 156.707 204.242C156.707 204.145 156.707 204.072 156.707 204.023C156.609 203.487 156.536 202.975 156.488 202.488C156.488 202.44 156.488 202.415 156.488 202.415C156.39 201.928 156.317 201.416 156.268 200.881C156.268 200.832 156.244 200.783 156.195 200.734C156.195 200.637 156.195 200.564 156.195 200.515C156.098 200.077 156.025 199.687 155.976 199.346C155.976 199.249 155.952 199.102 155.903 198.908C155.806 198.469 155.733 198.104 155.684 197.812C155.684 197.714 155.659 197.544 155.611 197.3C155.562 197.008 155.489 196.667 155.392 196.277C155.343 196.082 155.294 195.912 155.245 195.765C155.197 195.424 155.124 195.083 155.026 194.742C154.977 194.548 154.953 194.401 154.953 194.304C154.856 193.914 154.734 193.5 154.588 193.062C154.588 193.062 154.563 193.037 154.515 192.989C154.515 192.891 154.515 192.818 154.515 192.769C154.368 192.282 154.222 191.795 154.076 191.308C153.881 190.528 154.027 189.822 154.515 189.189C155.002 188.507 155.659 188.166 156.488 188.166H158.022H167.668H170.883H187.544Z" fill="#4C4B83"/>
<path d="M347.091 158.388C346.75 158.973 346.823 159.46 347.311 159.85C347.798 160.239 348.601 160.556 349.722 160.8C350.842 161.043 352.158 161.262 353.668 161.457C355.227 161.603 356.883 161.774 358.637 161.969C360.439 162.164 362.242 162.407 364.044 162.7C365.847 162.992 367.576 163.43 369.233 164.015C370.889 164.551 372.35 165.208 373.617 165.988C374.932 166.767 375.955 167.766 376.686 168.984C377.466 170.251 377.855 171.688 377.855 173.295C377.855 174.854 377.563 176.291 376.979 177.607C376.394 178.922 375.566 180.018 374.494 180.895C373.471 181.821 372.326 182.649 371.06 183.379C369.793 184.159 368.38 184.768 366.821 185.206C365.262 185.645 363.777 186.01 362.364 186.302C361 186.643 359.563 186.887 358.052 187.033C356.591 187.179 355.349 187.277 354.326 187.325C353.351 187.374 352.45 187.399 351.622 187.399C349.868 187.399 348.309 187.228 346.945 186.887C345.581 186.595 344.509 186.205 343.73 185.718C342.999 185.231 342.342 184.67 341.757 184.037C341.221 183.404 340.88 182.771 340.734 182.137C340.636 181.553 340.515 180.992 340.369 180.457C340.271 179.969 340.295 179.58 340.442 179.287C340.88 176.852 342.658 174.83 345.776 173.222L346.799 172.711C346.75 172.711 346.629 172.686 346.434 172.638C346.239 172.589 346.068 172.565 345.922 172.565C344.704 172.418 343.559 171.907 342.488 171.03C341.465 170.202 340.636 169.13 340.003 167.815C339.419 166.451 339.394 164.721 339.93 162.626C340.515 160.532 341.757 158.364 343.657 156.123C342.098 154.71 340.856 152.883 339.93 150.642C339.053 148.401 338.615 146.209 338.615 144.066C338.615 142.507 339.004 140.924 339.784 139.316C340.612 137.66 341.733 136.125 343.145 134.712C344.607 133.3 346.482 132.155 348.772 131.278C351.11 130.352 353.644 129.889 356.372 129.889C356.469 129.889 357.419 129.889 359.222 129.889C361.024 129.889 361.974 129.889 362.071 129.889C363.241 128.428 364.239 127.307 365.067 126.528C365.896 125.7 366.724 125.115 367.552 124.774C368.429 124.384 369.208 124.141 369.89 124.043C370.572 123.946 371.547 123.897 372.813 123.897C374.275 123.897 375.517 124.433 376.54 125.505C377.563 126.577 378.05 127.868 378.002 129.378C377.953 130.742 377.417 131.911 376.394 132.885C375.42 133.811 374.25 134.298 372.886 134.347C371.815 134.396 370.816 134.128 369.89 133.543C369.013 132.91 368.38 132.106 367.99 131.132C367.747 130.644 367.357 130.474 366.821 130.62C366.285 130.718 366.066 131.034 366.164 131.57C366.164 131.57 366.164 131.594 366.164 131.643C366.212 131.935 366.383 132.13 366.675 132.228C367.26 132.52 367.917 132.91 368.648 133.397C369.379 133.884 370.183 134.566 371.06 135.443C371.985 136.271 372.813 137.172 373.544 138.147C374.275 139.072 374.884 140.217 375.371 141.581C375.858 142.897 376.102 144.236 376.102 145.6C376.102 147.939 375.614 150.033 374.64 151.885C373.715 153.736 372.545 155.222 371.133 156.342C369.72 157.414 368.137 158.315 366.383 159.046C364.629 159.777 362.997 160.288 361.487 160.58C360.025 160.824 358.661 160.946 357.395 160.946C354.374 160.946 350.94 160.093 347.091 158.388ZM351.841 137.416C351.646 140.436 352.06 143.895 353.083 147.792C354.204 151.69 355.544 154.686 357.102 156.781C358.515 158.583 359.757 159.265 360.829 158.827C361.95 158.145 362.607 156.415 362.802 153.638C362.997 150.618 362.583 147.135 361.56 143.189C360.683 139.925 359.563 137.245 358.199 135.151C356.932 133.251 355.738 132.228 354.618 132.082C354.326 132.033 354.082 132.057 353.887 132.155C352.767 132.837 352.085 134.59 351.841 137.416ZM347.018 173.953C347.018 175.902 349.113 177.607 353.303 179.068C357.541 180.578 361.341 181.114 364.702 180.676C366.846 180.432 367.917 179.75 367.917 178.63C367.917 178.094 367.26 177.534 365.944 176.949C364.678 176.413 363.021 175.902 360.975 175.414C358.978 174.976 357.054 174.562 355.202 174.172C353.351 173.831 351.549 173.514 349.795 173.222C348.09 172.93 347.164 172.784 347.018 172.784V173.953Z" fill="#4C4B83"/>
<path d="M335.417 165.915C335.514 166.694 335.295 167.401 334.759 168.034C334.224 168.619 333.566 168.911 332.786 168.911H321.825C320.997 168.911 320.291 168.57 319.706 167.888C319.17 167.206 319 166.451 319.195 165.623C319.584 164.015 319.852 162.797 319.998 161.969C320.193 160.702 320.388 158.973 320.583 156.781C320.778 154.54 320.924 151.739 321.021 148.377C321.168 144.967 320.924 142.093 320.291 139.754C319.657 137.416 318.61 136.247 317.149 136.247C315.2 136.247 313.909 138.366 313.276 142.604C313.13 143.822 312.983 146.136 312.837 149.546C312.886 149.79 312.91 150.155 312.91 150.642C313.008 153.03 313.105 154.881 313.203 156.196C313.3 157.511 313.495 159.192 313.787 161.238C314.128 163.236 314.567 165.014 315.103 166.573C315.297 167.157 315.176 167.717 314.737 168.253C314.347 168.74 313.787 168.984 313.056 168.984H300.561C299.879 168.984 299.319 168.74 298.88 168.253C298.442 167.717 298.32 167.157 298.515 166.573C299.099 164.868 299.562 162.87 299.903 160.581C300.244 158.291 300.439 156.61 300.488 155.538C300.536 154.467 300.634 152.469 300.78 149.546C300.634 146.721 300.536 144.748 300.488 143.627C300.439 142.507 300.244 140.875 299.903 138.731C299.562 136.539 299.099 134.591 298.515 132.886C298.32 132.301 298.442 131.765 298.88 131.278C299.319 130.791 299.879 130.547 300.561 130.547H313.056C313.738 130.547 314.274 130.766 314.664 131.205C315.103 131.643 315.273 132.13 315.176 132.666C317.27 130.913 319.463 130.036 321.752 130.036C323.165 130.036 324.456 130.182 325.625 130.474C326.794 130.718 327.793 131.059 328.621 131.497C329.449 131.887 330.18 132.447 330.813 133.178C331.495 133.909 332.031 134.615 332.421 135.297C332.859 135.979 333.2 136.856 333.444 137.928C333.736 138.951 333.931 139.852 334.029 140.631C334.175 141.411 334.272 142.409 334.321 143.627C334.418 144.845 334.443 145.82 334.394 146.55C334.394 147.281 334.37 148.255 334.321 149.473C334.321 150.691 334.321 151.568 334.321 152.104C334.321 154.881 334.686 159.484 335.417 165.915Z" fill="#4C4B83"/>
<path d="M285.623 129.524C283.479 129.329 281.701 128.598 280.289 127.332C278.876 126.017 278.218 124.458 278.316 122.655V122.582C278.51 120.78 279.412 119.342 281.019 118.271C282.578 117.248 284.429 116.809 286.573 116.955C288.765 117.15 290.543 117.881 291.907 119.148C293.369 120.463 294.051 122.022 293.953 123.824V123.897C293.71 125.651 292.809 127.064 291.25 128.136C289.837 129.061 288.205 129.524 286.354 129.524C286.11 129.524 285.867 129.524 285.623 129.524ZM295.049 166.573C295.196 166.962 295.196 167.352 295.049 167.742C294.903 168.083 294.635 168.375 294.246 168.619C293.905 168.862 293.491 168.984 293.003 168.984H280.508C279.826 168.984 279.266 168.74 278.827 168.253C278.389 167.717 278.267 167.157 278.462 166.573C279.046 164.867 279.509 162.87 279.85 160.58C280.191 158.291 280.386 156.61 280.435 155.538C280.483 154.467 280.581 152.469 280.727 149.546C280.63 146.721 280.532 144.748 280.435 143.627C280.386 142.507 280.191 140.875 279.85 138.731C279.509 136.539 279.046 134.591 278.462 132.885C278.267 132.301 278.389 131.765 278.827 131.278C279.266 130.791 279.826 130.547 280.508 130.547H293.003C293.734 130.547 294.294 130.791 294.684 131.278C295.123 131.765 295.244 132.301 295.049 132.885C294.514 134.493 294.075 136.271 293.734 138.22C293.442 140.169 293.247 141.8 293.15 143.116C293.052 144.382 292.955 146.185 292.857 148.523C292.857 148.669 292.857 148.791 292.857 148.889C292.857 148.937 292.857 149.035 292.857 149.181C292.857 149.327 292.857 149.449 292.857 149.546C292.857 149.79 292.857 150.155 292.857 150.642C292.955 153.03 293.052 154.881 293.15 156.196C293.247 157.511 293.442 159.192 293.734 161.238C294.075 163.235 294.514 165.014 295.049 166.573Z" fill="#4C4B83"/>
<path d="M275.045 165.915C275.143 166.694 274.924 167.401 274.388 168.034C273.852 168.619 273.194 168.911 272.415 168.911H261.454C260.626 168.911 259.919 168.57 259.335 167.888C258.799 167.206 258.628 166.451 258.823 165.623C259.213 164.015 259.481 162.797 259.627 161.969C259.822 160.702 260.017 158.973 260.211 156.781C260.406 154.54 260.552 151.739 260.65 148.377C260.796 144.967 260.552 142.093 259.919 139.754C259.286 137.416 258.238 136.247 256.777 136.247C254.828 136.247 253.537 138.366 252.904 142.604C252.758 143.822 252.612 146.136 252.466 149.546C252.514 149.79 252.539 150.155 252.539 150.642C252.636 153.03 252.734 154.881 252.831 156.196C252.928 157.511 253.123 159.192 253.416 161.238C253.757 163.236 254.195 165.014 254.731 166.573C254.926 167.157 254.804 167.717 254.366 168.253C253.976 168.74 253.416 168.984 252.685 168.984H240.189C239.507 168.984 238.947 168.74 238.509 168.253C238.07 167.717 237.948 167.157 238.143 166.573C238.728 164.868 239.191 162.87 239.532 160.581C239.873 158.291 240.067 156.61 240.116 155.538C240.165 154.467 240.262 152.469 240.408 149.546C240.262 146.721 240.165 144.748 240.116 143.627C240.067 142.507 239.873 140.875 239.532 138.731C239.191 136.539 238.728 134.591 238.143 132.886C237.948 132.301 238.07 131.765 238.509 131.278C238.947 130.791 239.507 130.547 240.189 130.547H252.685C253.367 130.547 253.903 130.766 254.292 131.205C254.731 131.643 254.901 132.13 254.804 132.666C256.899 130.913 259.091 130.036 261.381 130.036C262.793 130.036 264.084 130.182 265.254 130.474C266.423 130.718 267.421 131.059 268.25 131.497C269.078 131.887 269.808 132.447 270.442 133.178C271.124 133.909 271.66 134.615 272.049 135.297C272.488 135.979 272.829 136.856 273.072 137.928C273.365 138.951 273.56 139.852 273.657 140.631C273.803 141.411 273.901 142.409 273.949 143.627C274.047 144.845 274.071 145.82 274.022 146.55C274.022 147.281 273.998 148.255 273.949 149.473C273.949 150.691 273.949 151.568 273.949 152.104C273.949 154.881 274.315 159.484 275.045 165.915Z" fill="#4C4B83"/>
<path d="M234.727 166.719C234.97 167.303 234.873 167.839 234.434 168.326C233.996 168.813 233.436 169.057 232.754 169.057H220.258C219.576 169.057 219.016 168.838 218.577 168.399C218.187 167.961 218.041 167.449 218.139 166.865C216.044 168.667 213.852 169.568 211.562 169.568C210.149 169.568 208.858 169.422 207.689 169.13C206.52 168.886 205.521 168.57 204.693 168.18C203.865 167.742 203.11 167.157 202.428 166.426C201.795 165.647 201.259 164.94 200.82 164.307C200.431 163.625 200.09 162.773 199.797 161.75C199.554 160.678 199.359 159.752 199.213 158.973C199.066 158.193 198.969 157.195 198.92 155.977C198.872 154.759 198.847 153.785 198.847 153.054C198.847 152.323 198.847 151.349 198.847 150.131C198.896 148.913 198.92 148.012 198.92 147.427C198.92 144.699 198.555 140.12 197.824 133.689C197.727 132.861 197.946 132.155 198.482 131.57C199.018 130.985 199.7 130.693 200.528 130.693H211.416C212.293 130.693 212.999 131.034 213.535 131.716C214.071 132.35 214.241 133.105 214.047 133.982C213.706 135.54 213.462 136.758 213.316 137.635C213.121 138.902 212.926 140.656 212.731 142.897C212.536 145.089 212.366 147.89 212.22 151.3C212.122 154.661 212.39 157.511 213.024 159.85C213.657 162.188 214.68 163.357 216.093 163.357C218.09 163.357 219.405 161.238 220.039 157C220.136 155.733 220.258 153.419 220.404 150.058C220.404 149.814 220.404 149.424 220.404 148.889C220.307 146.55 220.209 144.723 220.112 143.408C220.014 142.093 219.795 140.436 219.454 138.439C219.162 136.393 218.748 134.59 218.212 133.032C218.017 132.447 218.114 131.911 218.504 131.424C218.943 130.888 219.527 130.62 220.258 130.62H232.754C233.436 130.62 233.996 130.888 234.434 131.424C234.873 131.911 234.97 132.447 234.727 133.032C234.191 134.688 233.752 136.661 233.411 138.951C233.07 141.24 232.851 142.921 232.754 143.993C232.705 145.064 232.632 147.086 232.534 150.058C232.632 152.835 232.705 154.783 232.754 155.904C232.851 157.024 233.07 158.68 233.411 160.873C233.752 163.065 234.191 165.014 234.727 166.719Z" fill="#4C4B83"/>
<path d="M194.486 117.832C194.973 117.832 195.412 117.978 195.801 118.271C196.24 118.514 196.532 118.88 196.678 119.367C196.873 119.805 196.922 120.268 196.824 120.755L194.997 130.255C194.949 130.888 194.608 131.327 193.974 131.57C193.39 131.814 192.878 131.692 192.44 131.205C191.807 130.571 190.881 129.451 189.663 127.843C188.494 126.187 187.446 124.969 186.521 124.19C185.595 123.362 184.645 122.923 183.671 122.874C182.063 128.915 181.113 135.784 180.821 143.481C181.113 152.006 182.234 159.509 184.183 165.988C184.426 166.767 184.28 167.498 183.744 168.18C183.257 168.813 182.624 169.13 181.844 169.13H167.376C166.596 169.13 165.938 168.813 165.403 168.18C164.915 167.498 164.794 166.767 165.037 165.988C166.986 159.509 168.106 152.006 168.399 143.481C168.106 135.784 167.156 128.915 165.549 122.874C164.574 122.874 163.624 123.288 162.699 124.117C161.822 124.896 160.775 126.114 159.557 127.77C158.339 129.427 157.413 130.571 156.78 131.205C156.341 131.692 155.806 131.814 155.172 131.57C154.588 131.327 154.295 130.888 154.295 130.255L152.395 120.755C152.298 120.268 152.347 119.805 152.542 119.367C152.688 118.88 152.956 118.514 153.345 118.271C153.784 117.978 154.247 117.832 154.734 117.832H194.486Z" fill="#4C4B83"/>
<defs>
<linearGradient id="paint0_linear_403_987" x1="121.9" y1="17.8757" x2="121.9" y2="245.856" gradientUnits="userSpaceOnUse">
<stop stop-color="#FFFBED"/>
<stop offset="1" stop-color="#FFEEB6"/>
</linearGradient>
<linearGradient id="paint1_linear_403_987" x1="121.9" y1="17.8757" x2="121.9" y2="245.856" gradientUnits="userSpaceOnUse">
<stop stop-color="#FFFBED"/>
<stop offset="1" stop-color="#FFEEB6"/>
</linearGradient>
<linearGradient id="paint2_linear_403_987" x1="121.9" y1="17.8757" x2="121.9" y2="245.856" gradientUnits="userSpaceOnUse">
<stop stop-color="#FFFBED"/>
<stop offset="1" stop-color="#FFEEB6"/>
</linearGradient>
</defs>
</svg>
